<svg xmlns="http://www.w3.org/2000/svg" version="1.1" xmlns:xlink="http://www.w3.org/1999/xlink" xmlns:svgjs="http://svgjs.dev/svgjs" width="1000" height="999" viewBox="0 0 1000 999"><g transform="matrix(1,0,0,1,-0.215743440233382,-0.21552769679306039)"><svg viewBox="0 0 343 343" data-background-color="#636365" preserveAspectRatio="xMidYMid meet" height="999" width="1000" xmlns="http://www.w3.org/2000/svg" xmlns:xlink="http://www.w3.org/1999/xlink"><g id="tight-bounds" transform="matrix(1,0,0,1,0.0740000000000407,0.07400000000001228)"><svg viewBox="0 0 342.85155851775386 342.85155851775386" height="342.85155851775386" width="342.85155851775386"><g><svg></svg></g><g><svg viewBox="0 0 342.85155851775386 342.85155851775386" height="342.85155851775386" width="342.85155851775386"><g><path d="M0 171.426c0-94.676 76.75-171.426 171.426-171.426 94.676 0 171.426 76.75 171.426 171.426 0 94.676-76.75 171.426-171.426 171.426-94.676 0-171.426-76.75-171.426-171.426zM171.426 333.132c89.308 0 161.706-72.398 161.706-161.706 0-89.308-72.398-161.706-161.706-161.706-89.308 0-161.706 72.398-161.706 161.706 0 89.308 72.398 161.706 161.706 161.706z" data-fill-palette-color="tertiary" fill="#000000" stroke="transparent"></path><ellipse rx="164.56874808852186" ry="164.56874808852186" cx="171.42577925887693" cy="171.42577925887693" fill="#000000" stroke="transparent" stroke-width="0" fill-opacity="1" data-fill-palette-color="tertiary"></ellipse></g><g transform="matrix(1,0,0,1,64.84655864529837,117.53548091320275)"><svg viewBox="0 0 213.1584412271571 107.78059669134835" height="107.78059669134835" width="213.1584412271571"><g><svg viewBox="0 0 213.1584412271571 107.78059669134835" height="107.78059669134835" width="213.1584412271571"><g><svg viewBox="0 0 213.1584412271571 107.78059669134835" height="107.78059669134835" width="213.1584412271571"><g><svg viewBox="0 0 213.1584412271571 107.78059669134835" height="107.78059669134835" width="213.1584412271571"><g id="textblocktransform"><svg viewBox="0 0 213.1584412271571 107.78059669134835" height="107.78059669134835" width="213.1584412271571" id="textblock"><g><svg viewBox="0 0 213.1584412271571 107.78059669134835" height="107.78059669134835" width="213.1584412271571"><g transform="matrix(1,0,0,1,0,0)"><svg width="213.1584412271571" viewBox="2.0799999237060547 -37.84000015258789 75.79999542236328 38.33000183105469" height="107.78059669134835" data-palette-color="#636365"><path d="M2.08-2.47L3.69-5.88Q9.23-2.95 14.53-2.95L14.53-2.95Q20.68-2.95 21.73-6.88L21.73-6.88Q22.07-8.18 22.07-9.86L22.07-9.86 22.07-10.82Q22.07-12.52 21.83-13.57 21.58-14.62 20.8-15.28L20.8-15.28Q19.53-16.38 14.79-17.11L14.79-17.11Q10.57-17.77 8.96-18.36 7.35-18.95 6.31-19.64 5.27-20.34 4.54-21.39L4.54-21.39Q3.03-23.58 3.03-27.47L3.03-27.47 3.03-27.71Q3.03-35.77 9.72-37.35L9.72-37.35Q11.84-37.84 14.53-37.84L14.53-37.84 14.84-37.84Q21.12-37.84 25.1-36.04L25.1-36.04 23.83-32.3Q19.02-34.38 14.97-34.38L14.97-34.38 14.75-34.38Q10.28-34.38 8.59-32.69L8.59-32.69Q7.18-31.27 7.18-27.78L7.18-27.78 7.18-27.69Q7.18-23.71 9.38-22.46L9.38-22.46Q10.86-21.66 14.71-21.04 18.55-20.43 20.43-20.01 22.31-19.58 23.63-18.6L23.63-18.6Q26.37-16.55 26.37-10.82L26.37-10.82 26.37-10.5Q26.37-1.73 19.31-0.05L19.31-0.05Q17.14 0.49 15.21 0.49 13.28 0.49 11.71 0.35 10.13 0.22 8.5-0.12L8.5-0.12Q4.66-0.9 2.08-2.47L2.08-2.47ZM28.73-1.25L29.93-4.44Q29.93-4.44 30.49-4.17L30.49-4.17Q33.15-2.91 36.13-2.91L36.13-2.91Q38.72-2.91 39.79-4.52L39.79-4.52Q40.82-6.08 40.82-9.86L40.82-9.86 40.82-37.35 44.92-37.35 44.92-12.6Q44.92-8.03 44.54-6.15 44.16-4.27 43.59-3.13 43.02-1.98 42.04-1.17L42.04-1.17Q40.04 0.49 36.13 0.49L36.13 0.49Q32.76 0.49 29.81-0.73L29.81-0.73Q29.1-1.03 28.73-1.25L28.73-1.25ZM68.57-3.03L68.79-3.03Q72.77-3.03 76.8-4.57L76.8-4.57 77.88-1.2Q76.02-0.27 73.41 0.11 70.8 0.49 68.79 0.49L68.79 0.49 68.45 0.49Q59.76 0.49 56.81-4.49L56.81-4.49Q55-7.52 54.61-12.65L54.61-12.65Q54.44-15.11 54.44-18.04 54.44-20.97 54.6-23.62 54.76-26.27 55.24-28.48 55.73-30.69 56.66-32.42 57.59-34.16 59.15-35.35L59.15-35.35Q62.32-37.84 68.38-37.84L68.38-37.84Q72.29-37.84 74.67-37.34 77.05-36.84 77.88-36.52L77.88-36.52 76.78-32.67Q72.02-34.33 68.64-34.33 65.25-34.33 63.43-33.51 61.62-32.69 60.59-30.81L60.59-30.81Q58.81-27.59 58.81-18.53L58.81-18.53 58.81-16.72Q58.81-9.28 60.74-6.32L60.74-6.32Q62.89-3.03 68.57-3.03L68.57-3.03Z" opacity="1" transform="matrix(1,0,0,1,0,0)" fill="#ffffff" class="undefined-text-0" data-fill-palette-color="quaternary" id="text-0"></path></svg></g></svg></g></svg></g></svg></g><g></g></svg></g></svg></g></svg></g></svg></g><defs></defs></svg><rect width="342.85155851775386" height="342.85155851775386" fill="none" stroke="none" visibility="hidden"></rect></g></svg></g></svg>