<svg xmlns="http://www.w3.org/2000/svg" version="1.1" xmlns:xlink="http://www.w3.org/1999/xlink" xmlns:svgjs="http://svgjs.dev/svgjs" width="1000" height="1000" viewBox="0 0 1000 1000"><rect width="1000" height="1000" fill="#ffffff"></rect><g transform="matrix(0.7,0,0,0.7,149.57575757575756,282.1265587044535)"><svg viewBox="0 0 396 247" data-background-color="#ee3e38" preserveAspectRatio="xMidYMid meet" height="623" width="1000" xmlns="http://www.w3.org/2000/svg" xmlns:xlink="http://www.w3.org/1999/xlink"><g id="tight-bounds" transform="matrix(1,0,0,1,0.2400000000000091,-0.09999999999999432)"><svg viewBox="0 0 395.52 247.2" height="247.2" width="395.52"><g><svg></svg></g><g><svg viewBox="0 0 395.52 247.2" height="247.2" width="395.52"><g transform="matrix(1,0,0,1,75.54432,99.20480216169099)"><svg viewBox="0 0 244.43135999999998 48.790395676618" height="48.790395676618" width="244.43135999999998"><g><svg viewBox="0 0 244.43135999999998 48.790395676618" height="48.790395676618" width="244.43135999999998"><g><svg viewBox="0 0 244.43135999999998 48.790395676618" height="48.790395676618" width="244.43135999999998"><g><svg viewBox="0 0 244.43135999999998 48.790395676618" height="48.790395676618" width="244.43135999999998"><g id="textblocktransform"><svg viewBox="0 0 244.43135999999998 48.790395676618" height="48.790395676618" width="244.43135999999998" id="textblock"><g><svg viewBox="0 0 244.43135999999998 48.790395676618" height="48.790395676618" width="244.43135999999998"><g transform="matrix(1,0,0,1,0,0)"><svg width="244.43135999999998" viewBox="1.7999999523162842 -36.29999923706055 229.42999267578125 45.79999923706055" height="48.790395676618" data-palette-color="#ffffff"><path d="M16.05 0.5L16.05 0.5Q11.4 0.5 8.28-0.88 5.15-2.25 3.53-4.48 1.9-6.7 1.8-9.15L1.8-9.15Q1.8-9.6 2.1-9.9 2.4-10.2 2.85-10.2L2.85-10.2 7.3-10.2Q7.95-10.2 8.28-9.93 8.6-9.65 8.85-9.25L8.85-9.25Q9.15-8.3 10-7.38 10.85-6.45 12.33-5.85 13.8-5.25 16.05-5.25L16.05-5.25Q19.65-5.25 21.43-6.45 23.2-7.65 23.2-9.7L23.2-9.7Q23.2-11.15 22.25-12.03 21.3-12.9 19.33-13.63 17.35-14.35 14.1-15.15L14.1-15.15Q10.35-16.05 7.83-17.32 5.3-18.6 4.03-20.55 2.75-22.5 2.75-25.5L2.75-25.5Q2.75-28.4 4.33-30.65 5.9-32.9 8.83-34.2 11.75-35.5 15.8-35.5L15.8-35.5Q19.05-35.5 21.55-34.63 24.05-33.75 25.7-32.33 27.35-30.9 28.23-29.28 29.1-27.65 29.15-26.1L29.15-26.1Q29.15-25.7 28.88-25.38 28.6-25.05 28.1-25.05L28.1-25.05 23.45-25.05Q23.05-25.05 22.65-25.25 22.25-25.45 22-26L22-26Q21.7-27.55 20.05-28.65 18.4-29.75 15.8-29.75L15.8-29.75Q13.1-29.75 11.45-28.75 9.8-27.75 9.8-25.65L9.8-25.65Q9.8-24.25 10.63-23.33 11.45-22.4 13.28-21.7 15.1-21 18.1-20.2L18.1-20.2Q22.35-19.25 25.05-18 27.75-16.75 29-14.83 30.25-12.9 30.25-9.95L30.25-9.95Q30.25-6.65 28.48-4.33 26.7-2 23.5-0.75 20.3 0.5 16.05 0.5ZM47.3 0.5L47.3 0.5Q44.6 0.5 42.17-0.18 39.75-0.85 37.85-2.25 35.95-3.65 34.82-5.7 33.7-7.75 33.65-10.55L33.65-10.55Q33.65-11 33.95-11.33 34.25-11.65 34.7-11.65L34.7-11.65 39.45-11.65Q40.1-11.65 40.42-11.3 40.75-10.95 40.95-10.35L40.95-10.35Q41.2-8.55 42.1-7.43 43-6.3 44.37-5.78 45.75-5.25 47.45-5.25L47.45-5.25Q50.6-5.25 52.27-7.3 53.95-9.35 53.95-13L53.95-13 53.95-29.1 37-29.1Q36.45-29.1 36.12-29.45 35.8-29.8 35.8-30.3L35.8-30.3 35.8-33.8Q35.8-34.3 36.12-34.65 36.45-35 37-35L37-35 59.85-35Q60.4-35 60.75-34.65 61.1-34.3 61.1-33.75L61.1-33.75 61.1-12.8Q61.1-8.65 59.37-5.65 57.65-2.65 54.57-1.07 51.5 0.5 47.3 0.5ZM93.54 0.5L93.54 0.5Q88.89 0.5 85.67-1.13 82.44-2.75 80.74-5.78 79.04-8.8 78.84-13.05L78.84-13.05Q78.79-15.1 78.79-17.45 78.79-19.8 78.84-21.95L78.84-21.95Q79.04-26.15 80.77-29.2 82.49-32.25 85.72-33.88 88.94-35.5 93.54-35.5L93.54-35.5Q96.94-35.5 99.64-34.6 102.34-33.7 104.24-32.13 106.14-30.55 107.19-28.45 108.24-26.35 108.29-23.9L108.29-23.9Q108.34-23.45 108.02-23.15 107.69-22.85 107.24-22.85L107.24-22.85 102.49-22.85Q101.94-22.85 101.59-23.13 101.24-23.4 101.09-24.05L101.09-24.05Q100.29-27.35 98.34-28.55 96.39-29.75 93.49-29.75L93.49-29.75Q90.14-29.75 88.14-27.88 86.14-26 85.99-21.7L85.99-21.7Q85.84-17.6 85.99-13.3L85.99-13.3Q86.14-9 88.14-7.13 90.14-5.25 93.49-5.25L93.49-5.25Q96.39-5.25 98.37-6.48 100.34-7.7 101.09-10.95L101.09-10.95Q101.24-11.65 101.59-11.9 101.94-12.15 102.49-12.15L102.49-12.15 107.24-12.15Q107.69-12.15 108.02-11.85 108.34-11.55 108.29-11.1L108.29-11.1Q108.24-8.65 107.19-6.55 106.14-4.45 104.24-2.88 102.34-1.3 99.64-0.4 96.94 0.5 93.54 0.5ZM119.19 0L114.84 0Q114.34 0 113.99-0.35 113.64-0.7 113.64-1.2L113.64-1.2 113.64-24.75Q113.64-25.3 113.99-25.65 114.34-26 114.84-26L114.84-26 118.89-26Q119.39-26 119.77-25.65 120.14-25.3 120.14-24.75L120.14-24.75 120.14-22.7Q121.29-24.3 123.12-25.15 124.94-26 127.34-26L127.34-26 129.39-26Q129.94-26 130.27-25.65 130.59-25.3 130.59-24.8L130.59-24.8 130.59-21.2Q130.59-20.7 130.27-20.35 129.94-20 129.39-20L129.39-20 125.49-20Q123.09-20 121.77-18.68 120.44-17.35 120.44-14.95L120.44-14.95 120.44-1.2Q120.44-0.7 120.09-0.35 119.74 0 119.19 0L119.19 0ZM139.84 0L135.69 0Q135.19 0 134.84-0.35 134.49-0.7 134.49-1.2L134.49-1.2 134.49-24.8Q134.49-25.3 134.84-25.65 135.19-26 135.69-26L135.69-26 139.84-26Q140.39-26 140.71-25.65 141.04-25.3 141.04-24.8L141.04-24.8 141.04-1.2Q141.04-0.7 140.71-0.35 140.39 0 139.84 0L139.84 0ZM140.04-30.3L135.49-30.3Q134.99-30.3 134.64-30.65 134.29-31 134.29-31.5L134.29-31.5 134.29-35.1Q134.29-35.6 134.64-35.95 134.99-36.3 135.49-36.3L135.49-36.3 140.04-36.3Q140.59-36.3 140.94-35.95 141.29-35.6 141.29-35.1L141.29-35.1 141.29-31.5Q141.29-31 140.94-30.65 140.59-30.3 140.04-30.3L140.04-30.3ZM153.19 9.5L148.94 9.5Q148.44 9.5 148.09 9.15 147.74 8.8 147.74 8.3L147.74 8.3 147.74-24.8Q147.74-25.3 148.09-25.65 148.44-26 148.94-26L148.94-26 152.89-26Q153.44-26 153.76-25.65 154.09-25.3 154.09-24.8L154.09-24.8 154.09-22.8Q155.29-24.4 157.24-25.45 159.19-26.5 162.09-26.5L162.09-26.5Q164.74-26.5 166.69-25.65 168.64-24.8 169.94-23.23 171.24-21.65 171.94-19.5 172.64-17.35 172.74-14.75L172.74-14.75Q172.79-13.9 172.79-13 172.79-12.1 172.74-11.2L172.74-11.2Q172.69-8.7 171.99-6.58 171.29-4.45 169.96-2.88 168.64-1.3 166.69-0.4 164.74 0.5 162.09 0.5L162.09 0.5Q159.39 0.5 157.49-0.48 155.59-1.45 154.39-3.05L154.39-3.05 154.39 8.3Q154.39 8.8 154.06 9.15 153.74 9.5 153.19 9.5L153.19 9.5ZM160.24-4.85L160.24-4.85Q162.39-4.85 163.59-5.78 164.79-6.7 165.34-8.2 165.89-9.7 165.99-11.5L165.99-11.5Q166.04-13 165.99-14.5L165.99-14.5Q165.89-16.3 165.34-17.8 164.79-19.3 163.59-20.23 162.39-21.15 160.24-21.15L160.24-21.15Q158.19-21.15 156.91-20.2 155.64-19.25 155.06-17.78 154.49-16.3 154.39-14.75L154.39-14.75Q154.34-13.85 154.34-12.85 154.34-11.85 154.39-10.9L154.39-10.9Q154.44-9.4 155.09-8.03 155.74-6.65 156.99-5.75 158.24-4.85 160.24-4.85ZM183.88 9.5L179.63 9.5Q179.13 9.5 178.78 9.15 178.43 8.8 178.43 8.3L178.43 8.3 178.43-24.8Q178.43-25.3 178.78-25.65 179.13-26 179.63-26L179.63-26 183.58-26Q184.13-26 184.46-25.65 184.78-25.3 184.78-24.8L184.78-24.8 184.78-22.8Q185.98-24.4 187.93-25.45 189.88-26.5 192.78-26.5L192.78-26.5Q195.43-26.5 197.38-25.65 199.33-24.8 200.63-23.23 201.93-21.65 202.63-19.5 203.33-17.35 203.43-14.75L203.43-14.75Q203.48-13.9 203.48-13 203.48-12.1 203.43-11.2L203.43-11.2Q203.38-8.7 202.68-6.58 201.98-4.45 200.66-2.88 199.33-1.3 197.38-0.4 195.43 0.5 192.78 0.5L192.78 0.5Q190.08 0.5 188.18-0.48 186.28-1.45 185.08-3.05L185.08-3.05 185.08 8.3Q185.08 8.8 184.76 9.15 184.43 9.5 183.88 9.5L183.88 9.5ZM190.93-4.85L190.93-4.85Q193.08-4.85 194.28-5.78 195.48-6.7 196.03-8.2 196.58-9.7 196.68-11.5L196.68-11.5Q196.73-13 196.68-14.5L196.68-14.5Q196.58-16.3 196.03-17.8 195.48-19.3 194.28-20.23 193.08-21.15 190.93-21.15L190.93-21.15Q188.88-21.15 187.61-20.2 186.33-19.25 185.76-17.78 185.18-16.3 185.08-14.75L185.08-14.75Q185.03-13.85 185.03-12.85 185.03-11.85 185.08-10.9L185.08-10.9Q185.13-9.4 185.78-8.03 186.43-6.65 187.68-5.75 188.93-4.85 190.93-4.85ZM216.63 0.5L216.63 0.5Q214.03 0.5 211.93-0.53 209.83-1.55 208.61-3.28 207.38-5 207.38-7.15L207.38-7.15Q207.38-10.65 210.23-12.73 213.08-14.8 217.68-15.5L217.68-15.5 224.53-16.5 224.53-17.55Q224.53-19.65 223.48-20.8 222.43-21.95 219.88-21.95L219.88-21.95Q218.08-21.95 216.96-21.23 215.83-20.5 215.28-19.3L215.28-19.3Q214.88-18.65 214.13-18.65L214.13-18.65 210.18-18.65Q209.63-18.65 209.36-18.95 209.08-19.25 209.08-19.75L209.08-19.75Q209.13-20.55 209.76-21.7 210.38-22.85 211.66-23.93 212.93-25 214.98-25.75 217.03-26.5 219.93-26.5L219.93-26.5Q223.08-26.5 225.26-25.73 227.43-24.95 228.73-23.65 230.03-22.35 230.63-20.6 231.23-18.85 231.23-16.9L231.23-16.9 231.23-1.2Q231.23-0.7 230.88-0.35 230.53 0 230.03 0L230.03 0 225.98 0Q225.43 0 225.11-0.35 224.78-0.7 224.78-1.2L224.78-1.2 224.78-3.15Q224.13-2.25 223.03-1.4 221.93-0.55 220.36-0.03 218.78 0.5 216.63 0.5ZM218.33-4.25L218.33-4.25Q220.08-4.25 221.51-5 222.93-5.75 223.76-7.33 224.58-8.9 224.58-11.3L224.58-11.3 224.58-12.35 219.58-11.55Q216.63-11.1 215.18-10.1 213.73-9.1 213.73-7.65L213.73-7.65Q213.73-6.55 214.41-5.78 215.08-5 216.13-4.63 217.18-4.25 218.33-4.25Z" opacity="1" transform="matrix(1,0,0,1,0,0)" fill="#000000" class="undefined-text-0" data-fill-palette-color="primary" id="text-0"></path></svg></g></svg></g></svg></g></svg></g></svg></g></svg></g></svg></g><path d="M190.261 93.205L190.261 32.46 7.982 32.46 7.982 214.74 190.261 214.74 190.261 153.995 185.861 153.995 185.861 210.34 12.382 210.34 12.382 36.86 185.861 36.86 185.861 93.205Z" fill="#000000" stroke="transparent" data-fill-palette-color="primary"></path></svg></g><defs></defs></svg><rect width="395.52" height="247.2" fill="none" stroke="none" visibility="hidden"></rect></g></svg></g></svg>